<svg id="visual" viewBox="0 0 900 600" width="900" height="600" xmlns="http://www.w3.org/2000/svg" xmlns:xlink="http://www.w3.org/1999/xlink" version="1.1"><rect x="0" y="0" width="900" height="600" fill="#ffffff"></rect><defs><linearGradient id="grad1_0" x1="33.3%" y1="0%" x2="100%" y2="100%"><stop offset="20%" stop-color="#38b6ff" stop-opacity="1"></stop><stop offset="80%" stop-color="#38b6ff" stop-opacity="1"></stop></linearGradient></defs><defs><linearGradient id="grad1_1" x1="33.3%" y1="0%" x2="100%" y2="100%"><stop offset="20%" stop-color="#38b6ff" stop-opacity="1"></stop><stop offset="80%" stop-color="#92ceff" stop-opacity="1"></stop></linearGradient></defs><defs><linearGradient id="grad1_2" x1="33.3%" y1="0%" x2="100%" y2="100%"><stop offset="20%" stop-color="#cce6ff" stop-opacity="1"></stop><stop offset="80%" stop-color="#92ceff" stop-opacity="1"></stop></linearGradient></defs><defs><linearGradient id="grad1_3" x1="33.3%" y1="0%" x2="100%" y2="100%"><stop offset="20%" stop-color="#cce6ff" stop-opacity="1"></stop><stop offset="80%" stop-color="#ffffff" stop-opacity="1"></stop></linearGradient></defs><defs><linearGradient id="grad2_0" x1="0%" y1="0%" x2="66.7%" y2="100%"><stop offset="20%" stop-color="#38b6ff" stop-opacity="1"></stop><stop offset="80%" stop-color="#38b6ff" stop-opacity="1"></stop></linearGradient></defs><defs><linearGradient id="grad2_1" x1="0%" y1="0%" x2="66.7%" y2="100%"><stop offset="20%" stop-color="#92ceff" stop-opacity="1"></stop><stop offset="80%" stop-color="#38b6ff" stop-opacity="1"></stop></linearGradient></defs><defs><linearGradient id="grad2_2" x1="0%" y1="0%" x2="66.7%" y2="100%"><stop offset="20%" stop-color="#92ceff" stop-opacity="1"></stop><stop offset="80%" stop-color="#cce6ff" stop-opacity="1"></stop></linearGradient></defs><defs><linearGradient id="grad2_3" x1="0%" y1="0%" x2="66.7%" y2="100%"><stop offset="20%" stop-color="#ffffff" stop-opacity="1"></stop><stop offset="80%" stop-color="#cce6ff" stop-opacity="1"></stop></linearGradient></defs><g transform="translate(900, 0)"><path d="M0 432.7C-79.2 423.4 -158.3 414.1 -216.3 374.7C-274.4 335.3 -311.3 266 -343.8 198.5C-376.3 131 -404.5 65.5 -432.7 0L0 0Z" fill="#e6f2ff"></path><path d="M0 324.5C-59.4 317.5 -118.7 310.5 -162.2 281C-205.8 251.5 -233.5 199.5 -257.9 148.9C-282.3 98.3 -303.4 49.1 -324.5 0L0 0Z" fill="#b0daff"></path><path d="M0 216.3C-39.6 211.7 -79.2 207 -108.2 187.3C-137.2 167.7 -155.6 133 -171.9 99.3C-188.2 65.5 -202.3 32.8 -216.3 0L0 0Z" fill="#6ec2ff"></path><path d="M0 108.2C-19.8 105.8 -39.6 103.5 -54.1 93.7C-68.6 83.8 -77.8 66.5 -86 49.6C-94.1 32.8 -101.1 16.4 -108.2 0L0 0Z" fill="#38b6ff"></path></g><g transform="translate(0, 600)"><path d="M0 -432.7C76.6 -421.9 153.2 -411.1 216.3 -374.7C279.4 -338.3 329.1 -276.2 362.9 -209.5C396.7 -142.8 414.7 -71.4 432.7 0L0 0Z" fill="#e6f2ff"></path><path d="M0 -324.5C57.5 -316.4 114.9 -308.3 162.2 -281C209.6 -253.7 246.8 -207.2 272.1 -157.1C297.5 -107.1 311 -53.5 324.5 0L0 0Z" fill="#b0daff"></path><path d="M0 -216.3C38.3 -210.9 76.6 -205.6 108.2 -187.3C139.7 -169.1 164.5 -138.1 181.4 -104.8C198.3 -71.4 207.3 -35.7 216.3 0L0 0Z" fill="#6ec2ff"></path><path d="M0 -108.2C19.2 -105.5 38.3 -102.8 54.1 -93.7C69.9 -84.6 82.3 -69.1 90.7 -52.4C99.2 -35.7 103.7 -17.8 108.2 0L0 0Z" fill="#38b6ff"></path></g></svg>