<svg id="visual" viewBox="0 0 900 600" width="900" height="600" xmlns="http://www.w3.org/2000/svg" xmlns:xlink="http://www.w3.org/1999/xlink" version="1.1"><path d="M0 509L37.5 513.7C75 518.3 150 527.7 225 523.3C300 519 375 501 450 500.2C525 499.3 600 515.7 675 517.2C750 518.7 825 505.3 862.5 498.7L900 492L900 601L862.5 601C825 601 750 601 675 601C600 601 525 601 450 601C375 601 300 601 225 601C150 601 75 601 37.5 601L0 601Z" fill="#d2eeff"></path><path d="M0 533L37.5 538.5C75 544 150 555 225 556.5C300 558 375 550 450 549.5C525 549 600 556 675 552.2C750 548.3 825 533.7 862.5 526.3L900 519L900 601L862.5 601C825 601 750 601 675 601C600 601 525 601 450 601C375 601 300 601 225 601C150 601 75 601 37.5 601L0 601Z" fill="#ade0ff"></path><path d="M0 562L37.5 560.3C75 558.7 150 555.3 225 558.5C300 561.7 375 571.3 450 578.2C525 585 600 589 675 591.5C750 594 825 595 862.5 595.5L900 596L900 601L862.5 601C825 601 750 601 675 601C600 601 525 601 450 601C375 601 300 601 225 601C150 601 75 601 37.5 601L0 601Z" fill="#83d2ff"></path></svg>