<svg id="visual" viewBox="0 0 900 600" width="900" height="600" xmlns="http://www.w3.org/2000/svg" xmlns:xlink="http://www.w3.org/1999/xlink" version="1.1"><g><g transform="translate(580 141)"><path d="M80.5 -28.2C91.7 8.1 79.2 50 52.3 68.7C25.4 87.5 -15.9 83.1 -44.3 62.2C-72.6 41.3 -88.1 3.8 -78.5 -30.2C-69 -64.3 -34.5 -95 0.1 -95C34.7 -95.1 69.4 -64.5 80.5 -28.2Z" stroke="#ffffff" fill="none" stroke-width="6"></path></g><g transform="translate(835 326)"><path d="M81 -25.9C92.1 8 79.5 50 53.5 67.4C27.4 84.9 -12 77.8 -38.3 57.5C-64.7 37.2 -78.1 3.7 -69.6 -26.5C-61 -56.8 -30.5 -83.9 2.2 -84.6C34.9 -85.3 69.9 -59.7 81 -25.9Z" stroke="#ffffff" fill="none" stroke-width="6"></path></g><g transform="translate(225 261)"><path d="M43 -15.5C49.2 5.2 43.3 28.4 28.3 39.4C13.3 50.4 -10.9 49.3 -28 37.2C-45.1 25 -55.2 1.9 -49.3 -18.2C-43.5 -38.3 -21.8 -55.5 -1.7 -54.9C18.4 -54.4 36.8 -36.1 43 -15.5Z" stroke="#ffffff" fill="none" stroke-width="6"></path></g><g transform="translate(659 511)"><path d="M69.8 -23.4C80.1 9 70.9 46.9 44.8 67.2C18.7 87.5 -24.3 90 -50.1 70.9C-75.8 51.7 -84.4 10.7 -73.2 -22.9C-62 -56.6 -31 -83 -0.6 -82.8C29.8 -82.6 59.6 -55.8 69.8 -23.4Z" stroke="#ffffff" fill="none" stroke-width="6"></path></g><g transform="translate(92 505)"><path d="M56.9 -17.1C64.6 5.3 55.4 34.5 35.9 48.4C16.4 62.4 -13.5 61.1 -34 46.3C-54.5 31.5 -65.6 3.3 -58.3 -18.4C-51.1 -40.1 -25.6 -55.3 -0.5 -55.2C24.6 -55 49.1 -39.5 56.9 -17.1Z" stroke="#ffffff" fill="none" stroke-width="6"></path></g><g transform="translate(2 89)"><path d="M42.1 -14.2C47.8 3.8 40.9 25.3 24.4 38.5C7.8 51.7 -18.4 56.6 -34.6 45.4C-50.8 34.2 -56.9 6.8 -49.4 -13.6C-42 -34 -21 -47.5 -1.4 -47C18.2 -46.6 36.4 -32.2 42.1 -14.2Z" stroke="#ffffff" fill="none" stroke-width="6"></path></g><g transform="translate(796 5)"><path d="M57.2 -17.6C64.4 3.4 53.6 31.2 34.8 43.9C16 56.6 -10.8 54.2 -27.9 41.2C-44.9 28.1 -52.2 4.4 -45.9 -15.4C-39.6 -35.3 -19.8 -51.3 2.6 -52.1C25 -53 50.1 -38.7 57.2 -17.6Z" stroke="#ffffff" fill="none" stroke-width="6"></path></g></g></svg>