<svg id="visual" viewBox="0 0 900 600" width="900" height="600" xmlns="http://www.w3.org/2000/svg" xmlns:xlink="http://www.w3.org/1999/xlink" version="1.1"><g stroke-width="1" stroke-linejoin="bevel"><path d="M465 297L429 338L468 352Z" fill="#0fa4ff" stroke="#0fa4ff"></path><path d="M438.7 413L476.3 357L468 352Z" fill="#38b6ff" stroke="#38b6ff"></path><path d="M468 352L476.3 357L465 297Z" fill="#5271ff" stroke="#5271ff"></path><path d="M429 338L411 359L468 352Z" fill="#1e8aff" stroke="#1e8aff"></path><path d="M411 359L438.7 413L468 352Z" fill="#1daaff" stroke="#1daaff"></path><path d="M533.3 254L485.3 236L465 297Z" fill="#38b6ff" stroke="#38b6ff"></path><path d="M465 297L357.7 305L429 338Z" fill="#0b91ff" stroke="#0b91ff"></path><path d="M429 338L357.7 305L411 359Z" fill="#2bb0ff" stroke="#2bb0ff"></path><path d="M340.7 262L357.7 305L380.4 201Z" fill="#2bb0ff" stroke="#2bb0ff"></path><path d="M411 359L345.7 462L438.7 413Z" fill="#0fa4ff" stroke="#0fa4ff"></path><path d="M476.3 357L533.3 254L465 297Z" fill="#1daaff" stroke="#1daaff"></path><path d="M533.3 254L527.3 246L485.3 236Z" fill="#3182ff" stroke="#3182ff"></path><path d="M578.9 237L536.6 249L533.3 254Z" fill="#38b6ff" stroke="#38b6ff"></path><path d="M533.3 254L536.6 249L527.3 246Z" fill="#0b91ff" stroke="#0b91ff"></path><path d="M438.7 413L526.3 427L476.3 357Z" fill="#1e8aff" stroke="#1e8aff"></path><path d="M476.3 357L609.6 359L533.3 254Z" fill="#1daaff" stroke="#1daaff"></path><path d="M380.4 201L357.7 305L465 297Z" fill="#1e8aff" stroke="#1e8aff"></path><path d="M527.3 246L472 195L485.3 236Z" fill="#029eff" stroke="#029eff"></path><path d="M485.3 236L393.7 196L465 297Z" fill="#3182ff" stroke="#3182ff"></path><path d="M564.6 185L472 195L527.3 246Z" fill="#2bb0ff" stroke="#2bb0ff"></path><path d="M340.7 262L325.4 300L357.7 305Z" fill="#38b6ff" stroke="#38b6ff"></path><path d="M357.7 305L315.4 379L411 359Z" fill="#38b6ff" stroke="#38b6ff"></path><path d="M472 195L393.7 196L485.3 236Z" fill="#38b6ff" stroke="#38b6ff"></path><path d="M393.7 196L380.4 201L465 297Z" fill="#0fa4ff" stroke="#0fa4ff"></path><path d="M526.3 427L609.6 359L476.3 357Z" fill="#0fa4ff" stroke="#0fa4ff"></path><path d="M304.1 330L315.4 379L357.7 305Z" fill="#5271ff" stroke="#5271ff"></path><path d="M622.9 300L578.9 237L533.3 254Z" fill="#2bb0ff" stroke="#2bb0ff"></path><path d="M536.6 249L564.6 185L527.3 246Z" fill="#0098ff" stroke="#0098ff"></path><path d="M325.4 300L304.1 330L357.7 305Z" fill="#1e8aff" stroke="#1e8aff"></path><path d="M273.4 327L304.1 330L325.4 300Z" fill="#3182ff" stroke="#3182ff"></path><path d="M561.3 427L609.6 359L526.3 427Z" fill="#1daaff" stroke="#1daaff"></path><path d="M609.6 359L622.9 300L533.3 254Z" fill="#1daaff" stroke="#1daaff"></path><path d="M622.9 300L586.6 216L578.9 237Z" fill="#3182ff" stroke="#3182ff"></path><path d="M578.9 237L564.6 185L536.6 249Z" fill="#029eff" stroke="#029eff"></path><path d="M272.1 339L283.1 356L304.1 330Z" fill="#029eff" stroke="#029eff"></path><path d="M304.1 330L283.1 356L315.4 379Z" fill="#029eff" stroke="#029eff"></path><path d="M318.1 437L411 359L315.4 379Z" fill="#0098ff" stroke="#0098ff"></path><path d="M318.1 437L345.7 462L411 359Z" fill="#1e8aff" stroke="#1e8aff"></path><path d="M438.7 413L438 501L526.3 427Z" fill="#1e8aff" stroke="#1e8aff"></path><path d="M526.3 427L589.9 452L561.3 427Z" fill="#1daaff" stroke="#1daaff"></path><path d="M345.7 462L438 501L438.7 413Z" fill="#3182ff" stroke="#3182ff"></path><path d="M283.1 356L318.1 437L315.4 379Z" fill="#1daaff" stroke="#1daaff"></path><path d="M586.6 216L564.6 185L578.9 237Z" fill="#0098ff" stroke="#0098ff"></path><path d="M386.7 98L364.4 127L393.7 196Z" fill="#029eff" stroke="#029eff"></path><path d="M622.6 428L628.9 371L609.6 359Z" fill="#427aff" stroke="#427aff"></path><path d="M609.6 359L628.9 371L622.9 300Z" fill="#1e8aff" stroke="#1e8aff"></path><path d="M242.9 259L273.4 327L325.4 300Z" fill="#3182ff" stroke="#3182ff"></path><path d="M295.1 232L325.4 300L340.7 262Z" fill="#38b6ff" stroke="#38b6ff"></path><path d="M273.4 327L272.1 339L304.1 330Z" fill="#1daaff" stroke="#1daaff"></path><path d="M230.9 490L261.1 506L318.1 437Z" fill="#1daaff" stroke="#1daaff"></path><path d="M498.3 518L589.9 452L526.3 427Z" fill="#427aff" stroke="#427aff"></path><path d="M561.3 427L622.6 428L609.6 359Z" fill="#0098ff" stroke="#0098ff"></path><path d="M298.4 138L295.1 232L380.4 201Z" fill="#2bb0ff" stroke="#2bb0ff"></path><path d="M380.4 201L295.1 232L340.7 262Z" fill="#0fa4ff" stroke="#0fa4ff"></path><path d="M345.7 462L413.7 514L438 501Z" fill="#1e8aff" stroke="#1e8aff"></path><path d="M438 501L498.3 518L526.3 427Z" fill="#2bb0ff" stroke="#2bb0ff"></path><path d="M589.9 452L622.6 428L561.3 427Z" fill="#427aff" stroke="#427aff"></path><path d="M489 600L498.3 518L438 501Z" fill="#3182ff" stroke="#3182ff"></path><path d="M318.1 437L341.7 500L345.7 462Z" fill="#3182ff" stroke="#3182ff"></path><path d="M345.7 462L341.7 500L413.7 514Z" fill="#427aff" stroke="#427aff"></path><path d="M332.4 551L341.7 500L262.4 512Z" fill="#3182ff" stroke="#3182ff"></path><path d="M586.6 216L593.9 168L564.6 185Z" fill="#3182ff" stroke="#3182ff"></path><path d="M564.6 185L534.6 114L472 195Z" fill="#427aff" stroke="#427aff"></path><path d="M647.1 189L593.9 168L586.6 216Z" fill="#0098ff" stroke="#0098ff"></path><path d="M341.7 500L397 535L413.7 514Z" fill="#5271ff" stroke="#5271ff"></path><path d="M420.7 600L489 600L438 501Z" fill="#2bb0ff" stroke="#2bb0ff"></path><path d="M386.7 98L393.7 196L472 195Z" fill="#3182ff" stroke="#3182ff"></path><path d="M393.7 196L364.4 127L380.4 201Z" fill="#3182ff" stroke="#3182ff"></path><path d="M240.9 249L242.9 259L295.1 232Z" fill="#0fa4ff" stroke="#0fa4ff"></path><path d="M295.1 232L242.9 259L325.4 300Z" fill="#1e8aff" stroke="#1e8aff"></path><path d="M273.4 327L168.6 381L272.1 339Z" fill="#0fa4ff" stroke="#0fa4ff"></path><path d="M593.9 168L581.9 139L564.6 185Z" fill="#2bb0ff" stroke="#2bb0ff"></path><path d="M581.9 139L534.6 114L564.6 185Z" fill="#38b6ff" stroke="#38b6ff"></path><path d="M252.9 155L240.9 249L295.1 232Z" fill="#0b91ff" stroke="#0b91ff"></path><path d="M622.6 428L679.1 380L628.9 371Z" fill="#38b6ff" stroke="#38b6ff"></path><path d="M628.9 371L679.1 380L622.9 300Z" fill="#1daaff" stroke="#1daaff"></path><path d="M622.9 300L647.1 189L586.6 216Z" fill="#1e8aff" stroke="#1e8aff"></path><path d="M589.9 452L649.1 454L622.6 428Z" fill="#2bb0ff" stroke="#2bb0ff"></path><path d="M622.6 428L675.9 443L679.1 380Z" fill="#3182ff" stroke="#3182ff"></path><path d="M605.6 533L649.1 454L589.9 452Z" fill="#0098ff" stroke="#0098ff"></path><path d="M717.1 305L647.1 189L622.9 300Z" fill="#029eff" stroke="#029eff"></path><path d="M646.1 150L587.9 111L581.9 139Z" fill="#38b6ff" stroke="#38b6ff"></path><path d="M474.3 61L386.7 98L472 195Z" fill="#3182ff" stroke="#3182ff"></path><path d="M364.4 127L298.4 138L380.4 201Z" fill="#427aff" stroke="#427aff"></path><path d="M299.1 117L298.4 138L364.4 127Z" fill="#3182ff" stroke="#3182ff"></path><path d="M581.9 139L571.3 109L534.6 114Z" fill="#5271ff" stroke="#5271ff"></path><path d="M534.6 114L474.3 61L472 195Z" fill="#5271ff" stroke="#5271ff"></path><path d="M587.9 111L571.3 109L581.9 139Z" fill="#5271ff" stroke="#5271ff"></path><path d="M649.1 454L675.9 443L622.6 428Z" fill="#1e8aff" stroke="#1e8aff"></path><path d="M683.1 488L675.9 443L649.1 454Z" fill="#0b91ff" stroke="#0b91ff"></path><path d="M646.1 150L581.9 139L593.9 168Z" fill="#38b6ff" stroke="#38b6ff"></path><path d="M536.3 0L532.6 83L537.6 0Z" fill="#029eff" stroke="#029eff"></path><path d="M571.3 109L532.6 83L534.6 114Z" fill="#0098ff" stroke="#0098ff"></path><path d="M559.3 600L605.6 533L498.3 518Z" fill="#1daaff" stroke="#1daaff"></path><path d="M498.3 518L605.6 533L589.9 452Z" fill="#0098ff" stroke="#0098ff"></path><path d="M341.7 500L332.4 551L397 535Z" fill="#0098ff" stroke="#0098ff"></path><path d="M420.7 600L438 501L413.7 514Z" fill="#1daaff" stroke="#1daaff"></path><path d="M261.1 506L341.7 500L318.1 437Z" fill="#0098ff" stroke="#0098ff"></path><path d="M318.1 437L283.1 356L212.9 446Z" fill="#427aff" stroke="#427aff"></path><path d="M647.1 189L646.1 150L593.9 168Z" fill="#0098ff" stroke="#0098ff"></path><path d="M662.1 93L646.1 150L708.4 115Z" fill="#0b91ff" stroke="#0b91ff"></path><path d="M374.7 72L299.1 117L364.4 127Z" fill="#5271ff" stroke="#5271ff"></path><path d="M298.4 138L252.9 155L295.1 232Z" fill="#5271ff" stroke="#5271ff"></path><path d="M720.4 329L622.9 300L679.1 380Z" fill="#1daaff" stroke="#1daaff"></path><path d="M720.4 329L717.1 305L622.9 300Z" fill="#0098ff" stroke="#0098ff"></path><path d="M299.1 117L252.9 155L298.4 138Z" fill="#0fa4ff" stroke="#0fa4ff"></path><path d="M532.6 83L474.3 61L534.6 114Z" fill="#029eff" stroke="#029eff"></path><path d="M386.7 98L374.7 72L364.4 127Z" fill="#0098ff" stroke="#0098ff"></path><path d="M746.1 392L720.4 329L679.1 380Z" fill="#0fa4ff" stroke="#0fa4ff"></path><path d="M283.1 356L272.1 339L168.6 381Z" fill="#427aff" stroke="#427aff"></path><path d="M212.9 446L283.1 356L168.6 381Z" fill="#1daaff" stroke="#1daaff"></path><path d="M403 64L374.7 72L386.7 98Z" fill="#2bb0ff" stroke="#2bb0ff"></path><path d="M474.3 61L403 64L386.7 98Z" fill="#5271ff" stroke="#5271ff"></path><path d="M261.1 506L262.4 512L341.7 500Z" fill="#3182ff" stroke="#3182ff"></path><path d="M168.6 381L273.4 327L151.6 277Z" fill="#0098ff" stroke="#0098ff"></path><path d="M261.1 506L230.9 490L262.4 512Z" fill="#3182ff" stroke="#3182ff"></path><path d="M273.4 327L242.9 259L151.6 277Z" fill="#2bb0ff" stroke="#2bb0ff"></path><path d="M407 45L377.4 60L403 64Z" fill="#38b6ff" stroke="#38b6ff"></path><path d="M403 64L377.4 60L374.7 72Z" fill="#2bb0ff" stroke="#2bb0ff"></path><path d="M374.7 72L320.1 26L299.1 117Z" fill="#0fa4ff" stroke="#0fa4ff"></path><path d="M420.7 600L413.7 514L397 535Z" fill="#427aff" stroke="#427aff"></path><path d="M376.4 600L420.7 600L397 535Z" fill="#1e8aff" stroke="#1e8aff"></path><path d="M212.9 446L230.9 490L318.1 437Z" fill="#427aff" stroke="#427aff"></path><path d="M605.6 533L683.1 488L649.1 454Z" fill="#2bb0ff" stroke="#2bb0ff"></path><path d="M675.9 443L746.1 392L679.1 380Z" fill="#427aff" stroke="#427aff"></path><path d="M474.3 61L407 45L403 64Z" fill="#0098ff" stroke="#0098ff"></path><path d="M270.1 600L376.4 600L332.4 551Z" fill="#3182ff" stroke="#3182ff"></path><path d="M332.4 551L376.4 600L397 535Z" fill="#0b91ff" stroke="#0b91ff"></path><path d="M270.1 600L332.4 551L262.4 512Z" fill="#38b6ff" stroke="#38b6ff"></path><path d="M171.6 242L242.9 259L240.9 249Z" fill="#0098ff" stroke="#0098ff"></path><path d="M212.9 446L162.9 506L230.9 490Z" fill="#2bb0ff" stroke="#2bb0ff"></path><path d="M489 600L559.3 600L498.3 518Z" fill="#029eff" stroke="#029eff"></path><path d="M605.6 533L630.9 571L683.1 488Z" fill="#1e8aff" stroke="#1e8aff"></path><path d="M299.1 117L227.9 138L252.9 155Z" fill="#0b91ff" stroke="#0b91ff"></path><path d="M252.9 155L171.6 242L240.9 249Z" fill="#1e8aff" stroke="#1e8aff"></path><path d="M193.1 95L227.9 138L299.1 117Z" fill="#38b6ff" stroke="#38b6ff"></path><path d="M227.9 138L171.6 242L252.9 155Z" fill="#3182ff" stroke="#3182ff"></path><path d="M753.4 404L746.1 392L675.9 443Z" fill="#1daaff" stroke="#1daaff"></path><path d="M720.4 329L768.4 330L717.1 305Z" fill="#0b91ff" stroke="#0b91ff"></path><path d="M489 600L571.6 602L559.3 600Z" fill="#2bb0ff" stroke="#2bb0ff"></path><path d="M559.3 600L571.6 602L605.6 533Z" fill="#029eff" stroke="#029eff"></path><path d="M420.7 600L571.6 602L489 600Z" fill="#0b91ff" stroke="#0b91ff"></path><path d="M376.4 600L571.6 602L420.7 600Z" fill="#0fa4ff" stroke="#0fa4ff"></path><path d="M601.6 600L630.9 571L605.6 533Z" fill="#38b6ff" stroke="#38b6ff"></path><path d="M761.4 506L753.4 404L675.9 443Z" fill="#5271ff" stroke="#5271ff"></path><path d="M22.3 288L0 233L0 269Z" fill="#38b6ff" stroke="#38b6ff"></path><path d="M171.6 242L155.6 262L242.9 259Z" fill="#0098ff" stroke="#0098ff"></path><path d="M155.6 262L151.6 277L242.9 259Z" fill="#427aff" stroke="#427aff"></path><path d="M761.4 506L675.9 443L683.1 488Z" fill="#1daaff" stroke="#1daaff"></path><path d="M746.1 392L768.4 330L720.4 329Z" fill="#2bb0ff" stroke="#2bb0ff"></path><path d="M54.3 358L157.9 405L168.6 381Z" fill="#1e8aff" stroke="#1e8aff"></path><path d="M168.6 381L157.9 405L212.9 446Z" fill="#0b91ff" stroke="#0b91ff"></path><path d="M537.6 0L532.6 83L619.9 0Z" fill="#3182ff" stroke="#3182ff"></path><path d="M536.3 0L392 0L474.3 61Z" fill="#2bb0ff" stroke="#2bb0ff"></path><path d="M474.3 61L392 0L407 45Z" fill="#5271ff" stroke="#5271ff"></path><path d="M646.1 150L662.1 93L587.9 111Z" fill="#0b91ff" stroke="#0b91ff"></path><path d="M708.4 115L646.1 150L647.1 189Z" fill="#38b6ff" stroke="#38b6ff"></path><path d="M708.4 115L647.1 189L772.4 197Z" fill="#029eff" stroke="#029eff"></path><path d="M571.6 602L601.6 600L605.6 533Z" fill="#3182ff" stroke="#3182ff"></path><path d="M801.7 342L768.4 330L746.1 392Z" fill="#0fa4ff" stroke="#0fa4ff"></path><path d="M571.6 602L622.9 600L601.6 600Z" fill="#1daaff" stroke="#1daaff"></path><path d="M601.6 600L622.9 600L630.9 571Z" fill="#3182ff" stroke="#3182ff"></path><path d="M770.1 600L761.4 506L683.1 488Z" fill="#1e8aff" stroke="#1e8aff"></path><path d="M351.4 0L320.1 26L377.4 60Z" fill="#029eff" stroke="#029eff"></path><path d="M377.4 60L320.1 26L374.7 72Z" fill="#3182ff" stroke="#3182ff"></path><path d="M392 0L377.4 60L407 45Z" fill="#0b91ff" stroke="#0b91ff"></path><path d="M772.4 197L647.1 189L717.1 305Z" fill="#0098ff" stroke="#0098ff"></path><path d="M536.3 0L474.3 61L532.6 83Z" fill="#0fa4ff" stroke="#0fa4ff"></path><path d="M212.9 600L262.4 512L162.6 555Z" fill="#5271ff" stroke="#5271ff"></path><path d="M212.9 600L270.1 600L262.4 512Z" fill="#0b91ff" stroke="#0b91ff"></path><path d="M376.4 600L270.1 600L571.6 602Z" fill="#3182ff" stroke="#3182ff"></path><path d="M571.3 109L587.9 111L619.9 0Z" fill="#1e8aff" stroke="#1e8aff"></path><path d="M532.6 83L571.3 109L619.9 0Z" fill="#0fa4ff" stroke="#0fa4ff"></path><path d="M619.9 0L587.9 111L662.1 93Z" fill="#5271ff" stroke="#5271ff"></path><path d="M392 0L358.7 0L377.4 60Z" fill="#029eff" stroke="#029eff"></path><path d="M358.7 0L351.4 0L377.4 60Z" fill="#0fa4ff" stroke="#0fa4ff"></path><path d="M768.4 330L772.4 197L717.1 305Z" fill="#0b91ff" stroke="#0b91ff"></path><path d="M155.6 262L112.3 307L151.6 277Z" fill="#427aff" stroke="#427aff"></path><path d="M151.6 277L112.3 307L168.6 381Z" fill="#3182ff" stroke="#3182ff"></path><path d="M70.6 316L112.3 307L22.3 288Z" fill="#427aff" stroke="#427aff"></path><path d="M118.6 446L162.9 506L212.9 446Z" fill="#0fa4ff" stroke="#0fa4ff"></path><path d="M118.6 446L212.9 446L157.9 405Z" fill="#1e8aff" stroke="#1e8aff"></path><path d="M753.4 404L801.7 342L746.1 392Z" fill="#029eff" stroke="#029eff"></path><path d="M768.4 330L822.4 202L772.4 197Z" fill="#1e8aff" stroke="#1e8aff"></path><path d="M824.7 447L801.7 342L753.4 404Z" fill="#0fa4ff" stroke="#0fa4ff"></path><path d="M250.1 0L193.1 95L299.1 117Z" fill="#2bb0ff" stroke="#2bb0ff"></path><path d="M227.9 138L193.1 95L171.6 242Z" fill="#0098ff" stroke="#0098ff"></path><path d="M250.1 0L299.1 117L320.1 26Z" fill="#0fa4ff" stroke="#0fa4ff"></path><path d="M770.1 600L683.1 488L630.9 571Z" fill="#5271ff" stroke="#5271ff"></path><path d="M54.3 358L118.6 446L157.9 405Z" fill="#5271ff" stroke="#5271ff"></path><path d="M744.4 74L662.1 93L708.4 115Z" fill="#0098ff" stroke="#0098ff"></path><path d="M696.1 0L619.9 0L662.1 93Z" fill="#0fa4ff" stroke="#0fa4ff"></path><path d="M162.6 555L230.9 490L162.9 506Z" fill="#029eff" stroke="#029eff"></path><path d="M162.6 555L262.4 512L230.9 490Z" fill="#427aff" stroke="#427aff"></path><path d="M270.1 600L212.9 600L571.6 602Z" fill="#0fa4ff" stroke="#0fa4ff"></path><path d="M127.3 506L162.6 555L162.9 506Z" fill="#0b91ff" stroke="#0b91ff"></path><path d="M118.6 446L127.3 506L162.9 506Z" fill="#1daaff" stroke="#1daaff"></path><path d="M827.7 156L744.4 74L708.4 115Z" fill="#0098ff" stroke="#0098ff"></path><path d="M351.4 0L250.1 0L320.1 26Z" fill="#3182ff" stroke="#3182ff"></path><path d="M22.3 288L112.3 307L155.6 262Z" fill="#38b6ff" stroke="#38b6ff"></path><path d="M112.3 307L54.3 358L168.6 381Z" fill="#1daaff" stroke="#1daaff"></path><path d="M0 492L90.3 563L127.3 506Z" fill="#38b6ff" stroke="#38b6ff"></path><path d="M801.7 342L822.4 202L768.4 330Z" fill="#38b6ff" stroke="#38b6ff"></path><path d="M772.4 197L827.7 156L708.4 115Z" fill="#0b91ff" stroke="#0b91ff"></path><path d="M761.4 506L824.7 447L753.4 404Z" fill="#0b91ff" stroke="#0b91ff"></path><path d="M801.7 342L861.7 327L822.4 202Z" fill="#3182ff" stroke="#3182ff"></path><path d="M70.6 316L54.3 358L112.3 307Z" fill="#029eff" stroke="#029eff"></path><path d="M744.4 74L696.1 0L662.1 93Z" fill="#2bb0ff" stroke="#2bb0ff"></path><path d="M883.7 427L861.7 327L801.7 342Z" fill="#3182ff" stroke="#3182ff"></path><path d="M198.9 6L143.6 62L193.1 95Z" fill="#2bb0ff" stroke="#2bb0ff"></path><path d="M193.1 95L143.6 62L171.6 242Z" fill="#029eff" stroke="#029eff"></path><path d="M70.6 316L22.3 288L54.3 358Z" fill="#1daaff" stroke="#1daaff"></path><path d="M900 146L827.7 156L822.4 202Z" fill="#029eff" stroke="#029eff"></path><path d="M822.4 202L827.7 156L772.4 197Z" fill="#0b91ff" stroke="#0b91ff"></path><path d="M744.4 74L741.4 0L696.1 0Z" fill="#1e8aff" stroke="#1e8aff"></path><path d="M250.1 0L198.9 6L193.1 95Z" fill="#38b6ff" stroke="#38b6ff"></path><path d="M827.7 156L768.1 58L744.4 74Z" fill="#0098ff" stroke="#0098ff"></path><path d="M571.6 602L770.1 600L622.9 600Z" fill="#0b91ff" stroke="#0b91ff"></path><path d="M622.9 600L770.1 600L630.9 571Z" fill="#0098ff" stroke="#0098ff"></path><path d="M761.4 506L851.7 541L824.7 447Z" fill="#38b6ff" stroke="#38b6ff"></path><path d="M770.1 600L799.4 582L761.4 506Z" fill="#1daaff" stroke="#1daaff"></path><path d="M824.7 447L883.7 427L801.7 342Z" fill="#1e8aff" stroke="#1e8aff"></path><path d="M770.1 600L785.4 600L799.4 582Z" fill="#2bb0ff" stroke="#2bb0ff"></path><path d="M571.6 602L785.4 600L770.1 600Z" fill="#0b91ff" stroke="#0b91ff"></path><path d="M808.7 58L741.4 0L768.1 58Z" fill="#1daaff" stroke="#1daaff"></path><path d="M768.1 58L741.4 0L744.4 74Z" fill="#38b6ff" stroke="#38b6ff"></path><path d="M22.3 288L155.6 262L0 233Z" fill="#0098ff" stroke="#0098ff"></path><path d="M0 492L127.3 506L118.6 446Z" fill="#2bb0ff" stroke="#2bb0ff"></path><path d="M127.3 506L90.3 563L162.6 555Z" fill="#3182ff" stroke="#3182ff"></path><path d="M162.6 555L96.6 600L212.9 600Z" fill="#38b6ff" stroke="#38b6ff"></path><path d="M10.3 409L118.6 446L54.3 358Z" fill="#427aff" stroke="#427aff"></path><path d="M900 463L883.7 427L824.7 447Z" fill="#0b91ff" stroke="#0b91ff"></path><path d="M861.7 327L893.7 259L822.4 202Z" fill="#0fa4ff" stroke="#0fa4ff"></path><path d="M891.7 72L808.7 58L827.7 156Z" fill="#3182ff" stroke="#3182ff"></path><path d="M827.7 156L808.7 58L768.1 58Z" fill="#5271ff" stroke="#5271ff"></path><path d="M900 298L893.7 259L861.7 327Z" fill="#2bb0ff" stroke="#2bb0ff"></path><path d="M900 411L900 302L861.7 327Z" fill="#029eff" stroke="#029eff"></path><path d="M900 302L900 298L861.7 327Z" fill="#0098ff" stroke="#0098ff"></path><path d="M198.9 6L148.9 0L143.6 62Z" fill="#427aff" stroke="#427aff"></path><path d="M0 233L155.6 262L0 161Z" fill="#2bb0ff" stroke="#2bb0ff"></path><path d="M250.1 0L148.9 0L198.9 6Z" fill="#0098ff" stroke="#0098ff"></path><path d="M799.4 582L851.7 541L761.4 506Z" fill="#5271ff" stroke="#5271ff"></path><path d="M785.4 600L811.7 600L799.4 582Z" fill="#3182ff" stroke="#3182ff"></path><path d="M571.6 602L811.7 600L785.4 600Z" fill="#029eff" stroke="#029eff"></path><path d="M811.7 600L851.7 541L799.4 582Z" fill="#0b91ff" stroke="#0b91ff"></path><path d="M74.3 600L96.6 600L90.3 563Z" fill="#2bb0ff" stroke="#2bb0ff"></path><path d="M90.3 563L96.6 600L162.6 555Z" fill="#427aff" stroke="#427aff"></path><path d="M212.9 600L96.6 600L571.6 602Z" fill="#5271ff" stroke="#5271ff"></path><path d="M900 463L900 411L883.7 427Z" fill="#3182ff" stroke="#3182ff"></path><path d="M883.7 427L900 411L861.7 327Z" fill="#1daaff" stroke="#1daaff"></path><path d="M0 362L10.3 409L54.3 358Z" fill="#1e8aff" stroke="#1e8aff"></path><path d="M22.3 288L0 362L54.3 358Z" fill="#5271ff" stroke="#5271ff"></path><path d="M155.6 262L171.6 242L0 161Z" fill="#427aff" stroke="#427aff"></path><path d="M22.3 288L0 269L0 362Z" fill="#029eff" stroke="#029eff"></path><path d="M148.9 0L125.3 0L143.6 62Z" fill="#427aff" stroke="#427aff"></path><path d="M0 161L171.6 242L0.3 159Z" fill="#0098ff" stroke="#0098ff"></path><path d="M125.3 0L103.6 21L143.6 62Z" fill="#0098ff" stroke="#0098ff"></path><path d="M900 469L900 463L824.7 447Z" fill="#3182ff" stroke="#3182ff"></path><path d="M851.7 541L900 469L824.7 447Z" fill="#38b6ff" stroke="#38b6ff"></path><path d="M0 582L74.3 600L90.3 563Z" fill="#0098ff" stroke="#0098ff"></path><path d="M96.6 600L74.3 600L571.6 602Z" fill="#0098ff" stroke="#0098ff"></path><path d="M0 362L0 442L10.3 409Z" fill="#3182ff" stroke="#3182ff"></path><path d="M10.3 409L0 442L118.6 446Z" fill="#029eff" stroke="#029eff"></path><path d="M893.7 259L900 146L822.4 202Z" fill="#1e8aff" stroke="#1e8aff"></path><path d="M900 298L900 146L893.7 259Z" fill="#5271ff" stroke="#5271ff"></path><path d="M0.3 159L171.6 242L143.6 62Z" fill="#3182ff" stroke="#3182ff"></path><path d="M39.3 65L0.3 159L143.6 62Z" fill="#38b6ff" stroke="#38b6ff"></path><path d="M0 442L0 492L118.6 446Z" fill="#0098ff" stroke="#0098ff"></path><path d="M900 600L900 522L851.7 541Z" fill="#427aff" stroke="#427aff"></path><path d="M851.7 541L900 522L900 469Z" fill="#1e8aff" stroke="#1e8aff"></path><path d="M125.3 0L92.6 0L103.6 21Z" fill="#1e8aff" stroke="#1e8aff"></path><path d="M103.6 21L39.3 65L143.6 62Z" fill="#0b91ff" stroke="#0b91ff"></path><path d="M900 146L900 117L827.7 156Z" fill="#38b6ff" stroke="#38b6ff"></path><path d="M808.7 58L837.7 0L741.4 0Z" fill="#1daaff" stroke="#1daaff"></path><path d="M42.3 17L39.3 65L103.6 21Z" fill="#5271ff" stroke="#5271ff"></path><path d="M900 42L837.7 0L808.7 58Z" fill="#0098ff" stroke="#0098ff"></path><path d="M900 117L891.7 72L827.7 156Z" fill="#0b91ff" stroke="#0b91ff"></path><path d="M92.6 0L42.3 17L103.6 21Z" fill="#2bb0ff" stroke="#2bb0ff"></path><path d="M39.3 65L0 67L0.3 159Z" fill="#1daaff" stroke="#1daaff"></path><path d="M571.6 602L900 600L811.7 600Z" fill="#0b91ff" stroke="#0b91ff"></path><path d="M811.7 600L900 600L851.7 541Z" fill="#38b6ff" stroke="#38b6ff"></path><path d="M0 492L0 582L90.3 563Z" fill="#427aff" stroke="#427aff"></path><path d="M42.3 17L0 67L39.3 65Z" fill="#0098ff" stroke="#0098ff"></path><path d="M0.3 159L0 67L0 161Z" fill="#1daaff" stroke="#1daaff"></path><path d="M900 117L900 42L891.7 72Z" fill="#5271ff" stroke="#5271ff"></path><path d="M891.7 72L900 42L808.7 58Z" fill="#029eff" stroke="#029eff"></path><path d="M0 582L0 600L74.3 600Z" fill="#38b6ff" stroke="#38b6ff"></path><path d="M74.3 600L0 600L571.6 602Z" fill="#1e8aff" stroke="#1e8aff"></path><path d="M900 42L900 0L837.7 0Z" fill="#38b6ff" stroke="#38b6ff"></path><path d="M0 0L0 2L42.3 17Z" fill="#3182ff" stroke="#3182ff"></path><path d="M42.3 17L0 2L0 67Z" fill="#0b91ff" stroke="#0b91ff"></path><path d="M92.6 0L0 0L42.3 17Z" fill="#38b6ff" stroke="#38b6ff"></path></g></svg>