<svg id="visual" viewBox="0 0 900 600" width="900" height="600" xmlns="http://www.w3.org/2000/svg" xmlns:xlink="http://www.w3.org/1999/xlink" version="1.1"><path d="M0 154L25 154C50 154 100 154 150 147.8C200 141.7 250 129.3 300 129.3C350 129.3 400 141.7 450 142.5C500 143.3 550 132.7 600 128.5C650 124.3 700 126.7 750 130.7C800 134.7 850 140.3 875 143.2L900 146L900 0L875 0C850 0 800 0 750 0C700 0 650 0 600 0C550 0 500 0 450 0C400 0 350 0 300 0C250 0 200 0 150 0C100 0 50 0 25 0L0 0Z" fill="#d2eeff"></path><path d="M0 90L25 86.8C50 83.7 100 77.3 150 74.2C200 71 250 71 300 76.5C350 82 400 93 450 97.7C500 102.3 550 100.7 600 96C650 91.3 700 83.7 750 84C800 84.3 850 92.7 875 96.8L900 101L900 0L875 0C850 0 800 0 750 0C700 0 650 0 600 0C550 0 500 0 450 0C400 0 350 0 300 0C250 0 200 0 150 0C100 0 50 0 25 0L0 0Z" fill="#ade0ff"></path><path d="M0 29L25 29.7C50 30.3 100 31.7 150 35.3C200 39 250 45 300 43.2C350 41.3 400 31.7 450 28.3C500 25 550 28 600 34.2C650 40.3 700 49.7 750 51.3C800 53 850 47 875 44L900 41L900 0L875 0C850 0 800 0 750 0C700 0 650 0 600 0C550 0 500 0 450 0C400 0 350 0 300 0C250 0 200 0 150 0C100 0 50 0 25 0L0 0Z" fill="#83d2ff"></path></svg>