<svg id="visual" viewBox="0 0 900 600" width="900" height="600" xmlns="http://www.w3.org/2000/svg" xmlns:xlink="http://www.w3.org/1999/xlink" version="1.1"><path d="M0 115L13.7 106C27.3 97 54.7 79 82 80C109.3 81 136.7 101 163.8 112C191 123 218 125 245.2 117C272.3 109 299.7 91 327 88C354.3 85 381.7 97 409 104C436.3 111 463.7 113 491 113C518.3 113 545.7 111 573 108C600.3 105 627.7 101 654.8 95C682 89 709 81 736.2 89C763.3 97 790.7 121 818 121C845.3 121 872.7 97 886.3 85L900 73L900 0L886.3 0C872.7 0 845.3 0 818 0C790.7 0 763.3 0 736.2 0C709 0 682 0 654.8 0C627.7 0 600.3 0 573 0C545.7 0 518.3 0 491 0C463.7 0 436.3 0 409 0C381.7 0 354.3 0 327 0C299.7 0 272.3 0 245.2 0C218 0 191 0 163.8 0C136.7 0 109.3 0 82 0C54.7 0 27.3 0 13.7 0L0 0Z" fill="#0066ff"></path><path d="M0 181L13.7 173C27.3 165 54.7 149 82 153C109.3 157 136.7 181 163.8 193C191 205 218 205 245.2 200C272.3 195 299.7 185 327 176C354.3 167 381.7 159 409 157C436.3 155 463.7 159 491 164C518.3 169 545.7 175 573 173C600.3 171 627.7 161 654.8 150C682 139 709 127 736.2 132C763.3 137 790.7 159 818 167C845.3 175 872.7 169 886.3 166L900 163L900 71L886.3 83C872.7 95 845.3 119 818 119C790.7 119 763.3 95 736.2 87C709 79 682 87 654.8 93C627.7 99 600.3 103 573 106C545.7 109 518.3 111 491 111C463.7 111 436.3 109 409 102C381.7 95 354.3 83 327 86C299.7 89 272.3 107 245.2 115C218 123 191 121 163.8 110C136.7 99 109.3 79 82 78C54.7 77 27.3 95 13.7 104L0 113Z" fill="#7789ff"></path><path d="M0 307L13.7 309C27.3 311 54.7 315 82 326C109.3 337 136.7 355 163.8 365C191 375 218 377 245.2 383C272.3 389 299.7 399 327 383C354.3 367 381.7 325 409 328C436.3 331 463.7 379 491 379C518.3 379 545.7 331 573 321C600.3 311 627.7 339 654.8 357C682 375 709 383 736.2 370C763.3 357 790.7 323 818 308C845.3 293 872.7 297 886.3 299L900 301L900 161L886.3 164C872.7 167 845.3 173 818 165C790.7 157 763.3 135 736.2 130C709 125 682 137 654.8 148C627.7 159 600.3 169 573 171C545.7 173 518.3 167 491 162C463.7 157 436.3 153 409 155C381.7 157 354.3 165 327 174C299.7 183 272.3 193 245.2 198C218 203 191 203 163.8 191C136.7 179 109.3 155 82 151C54.7 147 27.3 163 13.7 171L0 179Z" fill="#acafff"></path><path d="M0 475L13.7 489C27.3 503 54.7 531 82 545C109.3 559 136.7 559 163.8 551C191 543 218 527 245.2 517C272.3 507 299.7 503 327 498C354.3 493 381.7 487 409 492C436.3 497 463.7 513 491 520C518.3 527 545.7 525 573 519C600.3 513 627.7 503 654.8 496C682 489 709 485 736.2 493C763.3 501 790.7 521 818 522C845.3 523 872.7 505 886.3 496L900 487L900 299L886.3 297C872.7 295 845.3 291 818 306C790.7 321 763.3 355 736.2 368C709 381 682 373 654.8 355C627.7 337 600.3 309 573 319C545.7 329 518.3 377 491 377C463.7 377 436.3 329 409 326C381.7 323 354.3 365 327 381C299.7 397 272.3 387 245.2 381C218 375 191 373 163.8 363C136.7 353 109.3 335 82 324C54.7 313 27.3 309 13.7 307L0 305Z" fill="#d7d6ff"></path><path d="M0 601L13.7 601C27.3 601 54.7 601 82 601C109.3 601 136.7 601 163.8 601C191 601 218 601 245.2 601C272.3 601 299.7 601 327 601C354.3 601 381.7 601 409 601C436.3 601 463.7 601 491 601C518.3 601 545.7 601 573 601C600.3 601 627.7 601 654.8 601C682 601 709 601 736.2 601C763.3 601 790.7 601 818 601C845.3 601 872.7 601 886.3 601L900 601L900 485L886.3 494C872.7 503 845.3 521 818 520C790.7 519 763.3 499 736.2 491C709 483 682 487 654.8 494C627.7 501 600.3 511 573 517C545.7 523 518.3 525 491 518C463.7 511 436.3 495 409 490C381.7 485 354.3 491 327 496C299.7 501 272.3 505 245.2 515C218 525 191 541 163.8 549C136.7 557 109.3 557 82 543C54.7 529 27.3 501 13.7 487L0 473Z" fill="#ffffff"></path></svg>