<svg id="visual" viewBox="0 0 900 600" width="900" height="600" xmlns="http://www.w3.org/2000/svg" xmlns:xlink="http://www.w3.org/1999/xlink" version="1.1"><path d="M0 13L30 24C60 35 120 57 180 77C240 97 300 115 360 101.8C420 88.7 480 44.3 540 25.3C600 6.3 660 12.7 720 16.8C780 21 840 23 870 24L900 25L900 0L870 0C840 0 780 0 720 0C660 0 600 0 540 0C480 0 420 0 360 0C300 0 240 0 180 0C120 0 60 0 30 0L0 0Z" fill="#38b6ff"></path><path d="M0 121L30 116C60 111 120 101 180 120C240 139 300 187 360 186C420 185 480 135 540 111C600 87 660 89 720 98C780 107 840 123 870 131L900 139L900 23L870 22C840 21 780 19 720 15.2C660 11.3 600 5.7 540 24.7C480 43.7 420 87.3 360 100.2C300 113 240 95 180 75C120 55 60 33 30 22L0 11Z" fill="#b0daff"></path><path d="M0 283L30 275C60 267 120 251 180 243C240 235 300 235 360 265C420 295 480 355 540 390C600 425 660 435 720 422C780 409 840 373 870 355L900 337L900 137L870 129C840 121 780 105 720 96C660 87 600 85 540 109C480 133 420 183 360 184C300 185 240 137 180 118C120 99 60 109 30 114L0 119Z" fill="#ffffff"></path><path d="M0 403L30 390C60 377 120 351 180 374C240 397 300 469 360 488C420 507 480 473 540 467C600 461 660 483 720 475C780 467 840 429 870 410L900 391L900 335L870 353C840 371 780 407 720 420C660 433 600 423 540 388C480 353 420 293 360 263C300 233 240 233 180 241C120 249 60 265 30 273L0 281Z" fill="#ffffff"></path><path d="M0 487L30 491C60 495 120 503 180 516C240 529 300 547 360 551C420 555 480 545 540 547C600 549 660 563 720 556C780 549 840 521 870 507L900 493L900 389L870 408C840 427 780 465 720 473C660 481 600 459 540 465C480 471 420 505 360 486C300 467 240 395 180 372C120 349 60 375 30 388L0 401Z" fill="#b0daff"></path><path d="M0 601L30 601C60 601 120 601 180 601C240 601 300 601 360 601C420 601 480 601 540 601C600 601 660 601 720 601C780 601 840 601 870 601L900 601L900 491L870 505C840 519 780 547 720 554C660 561 600 547 540 545C480 543 420 553 360 549C300 545 240 527 180 514C120 501 60 493 30 489L0 485Z" fill="#38b6ff"></path></svg>