<svg id="visual" viewBox="0 0 675 900" width="675" height="900" xmlns="http://www.w3.org/2000/svg" xmlns:xlink="http://www.w3.org/1999/xlink" version="1.1"><rect x="0" y="0" width="675" height="900" fill="#ffffff"></rect><path d="M0 752L18.8 755.5C37.7 759 75.3 766 112.8 770.7C150.3 775.3 187.7 777.7 225.2 780.5C262.7 783.3 300.3 786.7 337.8 787.7C375.3 788.7 412.7 787.3 450.2 784.5C487.7 781.7 525.3 777.3 562.8 773.8C600.3 770.3 637.7 767.7 656.3 766.3L675 765L675 901L656.3 901C637.7 901 600.3 901 562.8 901C525.3 901 487.7 901 450.2 901C412.7 901 375.3 901 337.8 901C300.3 901 262.7 901 225.2 901C187.7 901 150.3 901 112.8 901C75.3 901 37.7 901 18.8 901L0 901Z" fill="#a1d0f9"></path><path d="M0 804L18.8 806.8C37.7 809.7 75.3 815.3 112.8 813C150.3 810.7 187.7 800.3 225.2 795.7C262.7 791 300.3 792 337.8 797.7C375.3 803.3 412.7 813.7 450.2 814.5C487.7 815.3 525.3 806.7 562.8 805.3C600.3 804 637.7 810 656.3 813L675 816L675 901L656.3 901C637.7 901 600.3 901 562.8 901C525.3 901 487.7 901 450.2 901C412.7 901 375.3 901 337.8 901C300.3 901 262.7 901 225.2 901C187.7 901 150.3 901 112.8 901C75.3 901 37.7 901 18.8 901L0 901Z" fill="#78c3fc"></path><path d="M0 842L18.8 846.7C37.7 851.3 75.3 860.7 112.8 866C150.3 871.3 187.7 872.7 225.2 869.3C262.7 866 300.3 858 337.8 854.2C375.3 850.3 412.7 850.7 450.2 854.7C487.7 858.7 525.3 866.3 562.8 870.5C600.3 874.7 637.7 875.3 656.3 875.7L675 876L675 901L656.3 901C637.7 901 600.3 901 562.8 901C525.3 901 487.7 901 450.2 901C412.7 901 375.3 901 337.8 901C300.3 901 262.7 901 225.2 901C187.7 901 150.3 901 112.8 901C75.3 901 37.7 901 18.8 901L0 901Z" fill="#38b6ff"></path></svg>