<svg id="visual" viewBox="0 0 900 600" width="900" height="600" xmlns="http://www.w3.org/2000/svg" xmlns:xlink="http://www.w3.org/1999/xlink" version="1.1"><rect x="0" y="0" width="900" height="600" fill="#ffffff"></rect><path d="M0 474L21.5 472.2C43 470.3 86 466.7 128.8 464.3C171.7 462 214.3 461 257.2 464.5C300 468 343 476 385.8 475.5C428.7 475 471.3 466 514.2 461.3C557 456.7 600 456.3 642.8 459.7C685.7 463 728.3 470 771.2 473.5C814 477 857 477 878.5 477L900 477L900 601L878.5 601C857 601 814 601 771.2 601C728.3 601 685.7 601 642.8 601C600 601 557 601 514.2 601C471.3 601 428.7 601 385.8 601C343 601 300 601 257.2 601C214.3 601 171.7 601 128.8 601C86 601 43 601 21.5 601L0 601Z" fill="#b0daff"></path><path d="M0 493L21.5 497C43 501 86 509 128.8 510.5C171.7 512 214.3 507 257.2 503.5C300 500 343 498 385.8 500.8C428.7 503.7 471.3 511.3 514.2 516.7C557 522 600 525 642.8 519.8C685.7 514.7 728.3 501.3 771.2 499.5C814 497.7 857 507.3 878.5 512.2L900 517L900 601L878.5 601C857 601 814 601 771.2 601C728.3 601 685.7 601 642.8 601C600 601 557 601 514.2 601C471.3 601 428.7 601 385.8 601C343 601 300 601 257.2 601C214.3 601 171.7 601 128.8 601C86 601 43 601 21.5 601L0 601Z" fill="#80c8ff"></path><path d="M0 570L21.5 566.7C43 563.3 86 556.7 128.8 557.2C171.7 557.7 214.3 565.3 257.2 565.8C300 566.3 343 559.7 385.8 559.3C428.7 559 471.3 565 514.2 566.7C557 568.3 600 565.7 642.8 559.2C685.7 552.7 728.3 542.3 771.2 542.3C814 542.3 857 552.7 878.5 557.8L900 563L900 601L878.5 601C857 601 814 601 771.2 601C728.3 601 685.7 601 642.8 601C600 601 557 601 514.2 601C471.3 601 428.7 601 385.8 601C343 601 300 601 257.2 601C214.3 601 171.7 601 128.8 601C86 601 43 601 21.5 601L0 601Z" fill="#38b6ff"></path></svg>