<svg id="visual" viewBox="0 0 675 900" width="675" height="900" xmlns="http://www.w3.org/2000/svg" xmlns:xlink="http://www.w3.org/1999/xlink" version="1.1"><rect x="0" y="0" width="675" height="900" fill="#ffffff"></rect><path d="M0 112L18.8 116.5C37.7 121 75.3 130 112.8 133.8C150.3 137.7 187.7 136.3 225.2 137.8C262.7 139.3 300.3 143.7 337.8 144.3C375.3 145 412.7 142 450.2 136.8C487.7 131.7 525.3 124.3 562.8 124.8C600.3 125.3 637.7 133.7 656.3 137.8L675 142L675 0L656.3 0C637.7 0 600.3 0 562.8 0C525.3 0 487.7 0 450.2 0C412.7 0 375.3 0 337.8 0C300.3 0 262.7 0 225.2 0C187.7 0 150.3 0 112.8 0C75.3 0 37.7 0 18.8 0L0 0Z" fill="#a1d0f9"></path><path d="M0 70L18.8 73.8C37.7 77.7 75.3 85.3 112.8 90.8C150.3 96.3 187.7 99.7 225.2 100.3C262.7 101 300.3 99 337.8 94.5C375.3 90 412.7 83 450.2 80.2C487.7 77.3 525.3 78.7 562.8 77.7C600.3 76.7 637.7 73.3 656.3 71.7L675 70L675 0L656.3 0C637.7 0 600.3 0 562.8 0C525.3 0 487.7 0 450.2 0C412.7 0 375.3 0 337.8 0C300.3 0 262.7 0 225.2 0C187.7 0 150.3 0 112.8 0C75.3 0 37.7 0 18.8 0L0 0Z" fill="#78c3fc"></path><path d="M0 35L18.8 36.5C37.7 38 75.3 41 112.8 41.8C150.3 42.7 187.7 41.3 225.2 40C262.7 38.7 300.3 37.3 337.8 36C375.3 34.7 412.7 33.3 450.2 34.7C487.7 36 525.3 40 562.8 43.7C600.3 47.3 637.7 50.7 656.3 52.3L675 54L675 0L656.3 0C637.7 0 600.3 0 562.8 0C525.3 0 487.7 0 450.2 0C412.7 0 375.3 0 337.8 0C300.3 0 262.7 0 225.2 0C187.7 0 150.3 0 112.8 0C75.3 0 37.7 0 18.8 0L0 0Z" fill="#38b6ff"></path></svg>