<svg id="visual" viewBox="0 0 900 600" width="900" height="600" xmlns="http://www.w3.org/2000/svg" xmlns:xlink="http://www.w3.org/1999/xlink" version="1.1"><path d="M0 73L25 88C50 103 100 133 150 144C200 155 250 147 300 132C350 117 400 95 450 90C500 85 550 97 600 100C650 103 700 97 750 95C800 93 850 95 875 96L900 97L900 0L875 0C850 0 800 0 750 0C700 0 650 0 600 0C550 0 500 0 450 0C400 0 350 0 300 0C250 0 200 0 150 0C100 0 50 0 25 0L0 0Z" fill="#6198ff"></path><path d="M0 379L25 375C50 371 100 363 150 353C200 343 250 331 300 304C350 277 400 235 450 216C500 197 550 201 600 210C650 219 700 233 750 252C800 271 850 295 875 307L900 319L900 95L875 94C850 93 800 91 750 93C700 95 650 101 600 98C550 95 500 83 450 88C400 93 350 115 300 130C250 145 200 153 150 142C100 131 50 101 25 86L0 71Z" fill="#2d77ff"></path><path d="M0 463L25 463C50 463 100 463 150 451C200 439 250 415 300 393C350 371 400 351 450 340C500 329 550 327 600 336C650 345 700 365 750 378C800 391 850 397 875 400L900 403L900 317L875 305C850 293 800 269 750 250C700 231 650 217 600 208C550 199 500 195 450 214C400 233 350 275 300 302C250 329 200 341 150 351C100 361 50 369 25 373L0 377Z" fill="#005de8"></path><path d="M0 601L25 601C50 601 100 601 150 601C200 601 250 601 300 601C350 601 400 601 450 601C500 601 550 601 600 601C650 601 700 601 750 601C800 601 850 601 875 601L900 601L900 401L875 398C850 395 800 389 750 376C700 363 650 343 600 334C550 325 500 327 450 338C400 349 350 369 300 391C250 413 200 437 150 449C100 461 50 461 25 461L0 461Z" fill="#004cbb"></path></svg>